<svg id="visual" viewBox="0 0 1920 100" width="1920" height="100" xmlns="http://www.w3.org/2000/svg" xmlns:xlink="http://www.w3.org/1999/xlink" version="1.1"><path d="M0 10L35.5 14.3C71 18.7 142 27.3 213.2 36.8C284.3 46.3 355.7 56.7 426.8 64.8C498 73 569 79 640 69.7C711 60.3 782 35.7 853.2 24.7C924.3 13.7 995.7 16.3 1066.8 23.8C1138 31.3 1209 43.7 1280 51.7C1351 59.7 1422 63.3 1493.2 64.7C1564.3 66 1635.7 65 1706.8 63.7C1778 62.3 1849 60.7 1884.5 59.8L1920 59L1920 101L1884.5 101C1849 101 1778 101 1706.8 101C1635.7 101 1564.3 101 1493.2 101C1422 101 1351 101 1280 101C1209 101 1138 101 1066.8 101C995.7 101 924.3 101 853.2 101C782 101 711 101 640 101C569 101 498 101 426.8 101C355.7 101 284.3 101 213.2 101C142 101 71 101 35.5 101L0 101Z" fill="#ffffff" stroke-linecap="round" stroke-linejoin="miter"></path></svg>